<?xml version="1.0" standalone="no"?>
<!DOCTYPE svg PUBLIC "-//W3C//DTD SVG 1.1//EN"
"http://www.w3.org/Graphics/SVG/1.1/DTD/svg11.dtd">

<svg width="346" height="102" view_box="0 0 346 102"
xmlns="http://www.w3.org/2000/svg"
xmlns:link="http://www.w3.org/1999/xlink">\n\n<desc>Généré par Mocodo 2.3.7 le Thu, 09 Jul 2020 08:35:29</desc>

<rect id="frame" x="0" y="0" width="346" height="102" fill="#ffffbf" stroke="none" stroke-width="0"/>

<!-- Association PEUT AVOIR -->
<line x1="48" y1="51" x2="166" y2="51" stroke="#66c2a5" stroke-width="2"/>
<text x="92" y="68.0" fill="#d53e4f" font-family="Verdana" font-size="12">1,N</text>
<path d="M 87.0 51.0 L 99.0 45.0 L 95.0 51.0 L 99.0 57.0 Z" fill="#66c2a5" stroke-width="0"/>
<line x1="291" y1="51" x2="166" y2="51" stroke="#66c2a5" stroke-width="2"/>
<text x="219" y="68.0" fill="#d53e4f" font-family="Verdana" font-size="12">1,1</text>
<path d="M 245.0 51.0 L 233.0 57.0 L 237.0 51.0 L 233.0 45.0 Z" fill="#66c2a5" stroke-width="0"/>
<g id="association-PEUT AVOIR">
	<path d="M 199 26 a 14 14 90 0 1 14 14 V 51 h -94 V 40 a 14 14 90 0 1 14 -14" fill="#abdda4" stroke="#abdda4" stroke-width="0"/>
	<path d="M 213 51.0 v 11 a 14 14 90 0 1 -14 14 H 133 a 14 14 90 0 1 -14 -14 V 51.0 H 94" fill="#e6f598" stroke="#e6f598" stroke-width="0"/>
	<rect x="119" y="26" width="94" height="50" fill="none" rx="14" stroke="#66c2a5" stroke-width="2"/>
	<line x1="119" y1="51" x2="213" y2="51" stroke="#66c2a5" stroke-width="1"/>
	<text x="126" y="43.7" fill="#000000" font-family="Verdana" font-size="12">PEUT AVOIR</text>
</g>

<!-- Entity TASKS -->
<g id="entity-TASKS">
	<g id="frame-TASKS">
		<rect x="9" y="9" width="78" height="25" fill="#fdae61" stroke="#fdae61" stroke-width="0"/>
		<rect x="9" y="34.0" width="78" height="59" fill="#fee08b" stroke="#fee08b" stroke-width="0"/>
		<rect x="9" y="9" width="78" height="84" fill="none" stroke="#f46d43" stroke-width="2"/>
		<line x1="9" y1="34" x2="87" y2="34" stroke="#f46d43" stroke-width="1"/>
	</g>
	<text x="27" y="26.7" fill="#000000" font-family="Verdana" font-size="12">TASKS</text>
	<text x="14" y="51.8" fill="#000000" font-family="Verdana" font-size="12">title</text>
	<text x="14" y="68.8" fill="#000000" font-family="Verdana" font-size="12">completion</text>
	<text x="14" y="85.8" fill="#000000" font-family="Verdana" font-size="12">status</text>
</g>

<!-- Entity CATEGORIES -->
<g id="entity-CATEGORIES">
	<g id="frame-CATEGORIES">
		<rect x="245" y="17" width="92" height="25" fill="#fdae61" stroke="#fdae61" stroke-width="0"/>
		<rect x="245" y="42.0" width="92" height="43" fill="#fee08b" stroke="#fee08b" stroke-width="0"/>
		<rect x="245" y="17" width="92" height="68" fill="none" stroke="#f46d43" stroke-width="2"/>
		<line x1="245" y1="42" x2="337" y2="42" stroke="#f46d43" stroke-width="1"/>
	</g>
	<text x="250" y="34.7" fill="#000000" font-family="Verdana" font-size="12">CATEGORIES</text>
	<text x="250" y="59.8" fill="#000000" font-family="Verdana" font-size="12">name</text>
	<text x="250" y="76.8" fill="#000000" font-family="Verdana" font-size="12">status</text>
</g>
</svg>